<svg id="Layer_1" data-name="Layer 1" xmlns="http://www.w3.org/2000/svg" viewBox="0 0 128 128"><defs><style>.cls-1{fill:#00b77a;}.cls-2{fill:#14efa0;}.cls-3{fill:#fff;}</style></defs><path class="cls-1" d="M126.12,29.61a8.49,8.49,0,0,0-6.64-7L99,18.11a15.68,15.68,0,0,0-12.76,2.76L25.51,65.07l-17-.7A6.51,6.51,0,0,0,4.21,76L21.7,89.69c2.1,2.55,3.5,2.06,38.22-16.86l3.25,33a4.76,4.76,0,0,0,3,4.12,4.7,4.7,0,0,0,1.89.35,5.4,5.4,0,0,0,3.49-1.43l8.36-7.62a5.28,5.28,0,0,0,1.61-2.91l7.66-41.61c12.48-7,24.31-13.57,32.73-18.36A8.5,8.5,0,0,0,126.12,29.61Zm-7.69,2.62c-8.74,5-21,11.93-34.13,19.13l-1.43.81L74.71,96.48l-5.14,4.68L65.73,61.64,61.08,64C36,78,27.65,82.07,24.78,83.33L9.74,71.4l17.77.77L90.46,26.5a8.76,8.76,0,0,1,7-1.58l20.46,4.41a1.51,1.51,0,0,1,1.22,1.3A1.46,1.46,0,0,1,118.43,32.23Z"/><path class="cls-2" d="M118.43,32.23c-8.74,5-21,11.93-34.13,19.13l-1.43.81L74.71,96.48l-5.14,4.68L65.73,61.64,61.08,64C36,78,27.65,82.07,24.78,83.33L9.74,71.4l17.77.77L90.46,26.5a8.76,8.76,0,0,1,7-1.58l20.46,4.41a1.51,1.51,0,0,1,1.22,1.3A1.46,1.46,0,0,1,118.43,32.23Z"/><path class="cls-1" d="M25.51,44.93,38,48.43l5.74-4.17-14-4L36,36.36l19.13-.56,8-5.84L36,30.8a4.36,4.36,0,0,0-2.44.59l-9.2,5.36a4.48,4.48,0,0,0,1.15,8.18Z"/><path class="cls-1" d="M25.51,44.93,38,48.43l5.74-4.17-14-4L36,36.36l19.13-.56,8-5.84L36,30.8a4.36,4.36,0,0,0-2.44.59l-9.2,5.36a4.48,4.48,0,0,0,1.15,8.18Z"/><polygon class="cls-3" points="43.7 44.26 55.13 35.8 36 36.36 29.71 40.21 43.7 44.26"/></svg>