<svg id="Layer_1" data-name="Layer 1" xmlns="http://www.w3.org/2000/svg" viewBox="0 0 256 172"><defs><style>.cls-1{fill:#00b77a;}.cls-2{fill:#14efa0;}.cls-3{fill:#fff;}</style></defs><path class="cls-1" d="M237.12,25.6a14.94,14.94,0,0,0-11.67-12.29L189.39,5.39A27.63,27.63,0,0,0,167,10.24L60.39,87.88,30.54,86.65A11.43,11.43,0,0,0,23,107L53.7,131.13c3.68,4.48,6.14,3.62,67.14-29.61l5.71,57.87a8.36,8.36,0,0,0,5.22,7.24,8.59,8.59,0,0,0,3.32.62,9.47,9.47,0,0,0,6.14-2.52l14.68-13.39a9.29,9.29,0,0,0,2.83-5.1l13.45-73.1c21.93-12.28,42.7-23.83,57.5-32.25A14.93,14.93,0,0,0,237.12,25.6Zm-13.51,4.6c-15.36,8.73-36.86,21-60,33.6l-2.51,1.42-14.32,77.83-9,8.23L131,81.86,122.87,86C78.82,110.61,64.14,117.74,59.1,120L32.69,99l31.21,1.35L174.47,20.13a15.36,15.36,0,0,1,12.28-2.77l35.94,7.74a2.67,2.67,0,0,1,2.15,2.28A2.57,2.57,0,0,1,223.61,30.2Z"/><path class="cls-2" d="M223.61,30.2c-15.36,8.73-36.86,21-60,33.6l-2.51,1.42-14.32,77.83-9,8.23L131,81.86,122.87,86C78.82,110.61,64.14,117.74,59.1,120L32.69,99l31.21,1.35L174.47,20.13a15.36,15.36,0,0,1,12.28-2.77l35.94,7.74a2.67,2.67,0,0,1,2.15,2.28A2.57,2.57,0,0,1,223.61,30.2Z"/><path class="cls-1" d="M60.39,52.5l21.87,6.14,10.07-7.31L67.76,44.21l11.06-6.76,33.6-1,14.13-10.26L78.82,27.68a7.73,7.73,0,0,0-4.3,1.05l-16.16,9.4a7.86,7.86,0,0,0,2,14.37Z"/><path class="cls-1" d="M60.39,52.5l21.87,6.14,10.07-7.31L67.76,44.21l11.06-6.76,33.6-1,14.13-10.26L78.82,27.68a7.73,7.73,0,0,0-4.3,1.05l-16.16,9.4a7.86,7.86,0,0,0,2,14.37Z"/><polygon class="cls-3" points="92.33 51.33 112.42 36.47 78.82 37.45 67.76 44.21 92.33 51.33"/></svg>